<svg version="1.1" id="Layer_1" xmlns="http://www.w3.org/2000/svg" xmlns:xlink="http://www.w3.org/1999/xlink" x="0px" y="0px"
	 width="100%" viewBox="0 0 512 512" enable-background="new 0 0 512 512" xml:space="preserve">

<path fill="#EAEAEA" opacity="1.000000" stroke="none" 
	d="
M182.898590,475.602997 
	C175.767822,474.043884 168.637070,472.484802 160.762192,470.763000 
	C162.340363,468.528046 163.600449,466.844940 164.754944,465.092285 
	C172.936310,452.671631 177.018280,439.024536 177.004257,424.142303 
	C176.984619,403.318878 177.104935,382.494812 176.971191,361.672241 
	C176.822174,338.471222 167.708115,319.450928 149.775589,304.687408 
	C149.264084,304.266327 148.759216,303.836121 148.270569,303.389099 
	C148.159866,303.287811 148.129822,303.098328 147.896683,302.581604 
	C160.054260,295.257812 163.318085,284.185760 159.663559,271.016418 
	C155.399414,255.650238 145.262238,245.854813 129.693130,242.060791 
	C126.019379,241.165527 122.144218,241.096741 117.357811,240.528595 
	C121.988663,235.390030 126.290817,230.501648 130.767258,225.778442 
	C131.402954,225.107697 132.885208,225.032013 133.976166,225.030396 
	C160.126236,224.991302 186.276382,224.999954 213.011093,224.999954 
	C209.372772,232.944962 207.726913,240.901230 210.088440,249.204315 
	C212.412201,257.374756 217.096161,263.824310 224.405899,268.282806 
	C236.207733,275.481110 250.921875,274.343109 261.598755,265.397003 
	C272.984039,255.857330 275.642609,242.127441 269.119476,224.999878 
	C270.876526,224.999878 272.447021,224.999863 274.017487,224.999863 
	C298.006073,224.999863 321.995209,225.079498 345.982635,224.911942 
	C349.484894,224.887482 352.019867,225.761810 354.065277,228.535385 
	C363.031586,240.693741 372.041168,252.820160 381.053131,265.689941 
	C380.532440,267.980835 380.156891,269.620911 379.429565,271.086487 
	C372.714050,284.618561 366.371765,298.359558 359.088196,311.581055 
	C344.202087,338.603027 325.776581,363.179901 304.653290,385.591553 
	C293.737030,397.173645 281.911438,407.963928 269.921661,418.454712 
	C248.348129,437.331116 224.585861,453.110504 199.203522,466.452606 
	C193.688934,469.351318 188.329483,472.545105 182.898590,475.602997 
z"/>
<path fill="#E8E8E8" opacity="1.000000" stroke="none" 
	d="
M236.000000,64.996658 
	C252.109818,65.649452 268.012634,64.622765 283.271942,67.284805 
	C321.784302,74.003441 351.399109,109.426369 352.872955,148.519653 
	C353.223297,157.812546 352.924927,167.129898 352.924927,176.718903 
	C278.371643,176.718903 203.984009,176.718903 129.587875,176.718903 
	C123.744766,126.627762 142.917923,84.675743 192.388321,68.551186 
	C206.463577,63.963448 221.038895,65.090240 236.000000,64.996658 
M260.590637,144.966110 
	C255.877594,144.649033 252.103531,142.463486 250.369537,138.158875 
	C249.237732,135.349182 249.319946,132.025726 249.004837,128.917557 
	C248.527817,124.212357 245.332031,121.006348 240.967773,121.023605 
	C236.602570,121.040878 233.366486,124.249283 233.026016,128.975266 
	C232.918579,130.466629 233.054932,131.975647 232.945526,133.466751 
	C232.457947,140.112030 227.239761,145.047867 220.847122,144.965912 
	C214.658371,144.886581 209.602188,140.069916 209.064804,133.667648 
	C208.944489,132.234283 209.047119,130.782196 209.047119,129.214539 
	C203.511429,129.214539 198.429367,129.214539 193.113129,129.214539 
	C192.289459,141.203964 196.340866,150.777893 206.550583,156.852371 
	C218.776291,164.126328 230.401871,161.781509 240.944580,152.964203 
	C253.408356,162.249619 264.884399,163.483612 275.704132,156.813675 
	C285.198059,150.961044 290.239197,140.083298 288.461945,129.239502 
	C283.375427,129.239502 278.287109,129.239502 273.217987,129.239502 
	C272.515350,140.070572 269.956879,143.427002 260.590637,144.966110 
M270.578125,102.188576 
	C280.102814,95.086891 282.116669,95.085114 291.467407,102.245995 
	C295.052917,98.653984 298.650085,95.050308 302.238586,91.455353 
	C291.304871,77.459488 269.906433,77.542976 259.765869,91.643677 
	C263.141724,95.032829 266.533295,98.437759 270.578125,102.188576 
M182.055283,88.655876 
	C181.256012,89.601547 180.456741,90.547218 179.800934,91.323128 
	C183.527863,95.193130 186.971786,98.769272 190.392807,102.321632 
	C200.113556,95.099525 202.150894,95.097336 211.170746,102.020950 
	C214.878922,98.483902 218.564590,94.968323 222.241196,91.461372 
	C212.429016,78.878593 196.059113,77.542076 182.055283,88.655876 
M323.245331,167.210190 
	C325.942932,167.938828 328.640533,168.667450 331.690674,169.491318 
	C333.099670,164.317184 334.431152,159.427582 335.872528,154.134476 
	C325.460541,151.328003 315.309937,148.591965 304.956726,145.801315 
	C303.519501,151.263382 302.228699,156.169113 300.878479,161.300507 
	C308.367096,163.297379 315.400116,165.172791 323.245331,167.210190 
M180.270828,124.886658 
	C180.535629,123.793442 180.800415,122.700226 181.160492,121.213600 
	C170.813416,118.445885 160.688080,115.737488 150.348083,112.971664 
	C148.939529,118.395470 147.666382,123.297874 146.325302,128.461884 
	C156.814072,131.262238 166.804581,133.929550 177.122223,136.684219 
	C178.202377,132.668961 179.141617,129.177505 180.270828,124.886658 
M149.186813,165.366211 
	C149.678818,166.670242 150.170822,167.974258 150.742554,169.489578 
	C161.119812,166.693680 171.089142,164.007675 181.326508,161.249466 
	C179.809494,155.748962 178.470001,150.892181 177.070816,145.818909 
	C166.554871,148.673645 156.547318,151.390381 146.326981,154.164886 
	C147.295624,157.886322 148.161819,161.214218 149.186813,165.366211 
M319.644165,116.144958 
	C313.449585,117.846443 307.255005,119.547928 300.792145,121.323105 
	C302.223328,126.525887 303.565063,131.403519 305.011169,136.660645 
	C315.478088,133.859543 325.469574,131.185654 335.808899,128.418686 
	C334.372742,123.034485 333.065399,118.133224 331.690521,112.978882 
	C327.740997,114.033211 324.093079,115.007019 319.644165,116.144958 
z"/>
<path fill="#CBCBCB" opacity="1.000000" stroke="none" 
	d="
M183.229874,475.765503 
	C188.329483,472.545105 193.688934,469.351318 199.203522,466.452606 
	C224.585861,453.110504 248.348129,437.331116 269.921661,418.454712 
	C281.911438,407.963928 293.737030,397.173645 304.653290,385.591553 
	C325.776581,363.179901 344.202087,338.603027 359.088196,311.581055 
	C366.371765,298.359558 372.714050,284.618561 379.429565,271.086487 
	C380.156891,269.620911 380.532440,267.980835 381.132050,266.020691 
	C395.919373,290.130096 404.808807,316.575317 408.169769,345.439819 
	C396.387177,344.061920 386.057831,346.211212 377.022339,353.107361 
	C366.547607,361.101868 361.197418,371.812714 361.053467,384.918213 
	C360.865021,402.075012 360.941681,419.235840 361.057861,436.393860 
	C361.078400,439.422577 360.190308,441.445190 358.037628,443.720947 
	C354.543854,447.414490 351.371429,451.619934 349.011505,456.107819 
	C347.324341,459.316406 345.234863,461.241272 342.093994,462.636475 
	C319.166779,472.820801 294.966492,477.746094 270.138733,479.830444 
	C242.982010,482.110321 215.894028,481.299377 188.953293,476.948486 
	C187.148071,476.656952 185.358185,476.270325 183.229874,475.765503 
z"/>
<path fill="#FCA809" opacity="1.000000" stroke="none" 
	d="
M157.994690,343.970398 
	C158.988373,349.309601 160.759995,354.637268 160.839661,359.990051 
	C161.166534,381.953888 161.224792,403.928833 160.918289,425.893188 
	C160.515900,454.729858 138.335892,478.313538 109.753799,480.832855 
	C81.116402,483.357056 55.317234,463.511322 50.372932,434.391296 
	C59.518566,428.344360 68.264061,422.753052 77.472046,417.089630 
	C97.513062,417.017487 117.091576,417.017487 136.685623,417.017487 
	C136.685623,411.377350 136.685623,406.321564 136.685623,400.837097 
	C124.251320,400.837097 112.127449,400.837097 100.178680,400.559326 
	C105.911064,395.241089 111.468353,390.200623 117.486343,385.088379 
	C124.206039,385.016571 130.465027,385.016571 136.995621,385.016571 
	C136.995621,380.094574 137.108810,375.787262 136.905014,371.494965 
	C136.861603,370.580719 135.664948,369.721283 135.171722,368.561523 
	C142.894104,360.181091 150.444397,352.075745 157.994690,343.970398 
M119.498688,433.001892 
	C104.105034,433.001892 88.711372,433.001892 73.311310,433.001892 
	C73.311310,438.627258 73.311310,443.677704 73.311310,448.713318 
	C94.640343,448.713318 115.658722,448.713318 136.689102,448.713318 
	C136.689102,443.373535 136.689102,438.323090 136.689102,433.001892 
	C131.087738,433.001892 125.792900,433.001892 119.498688,433.001892 
z"/>
<path fill="#FCB52F" opacity="1.000000" stroke="none" 
	d="
M158.000214,343.599823 
	C150.444397,352.075745 142.894104,360.181091 134.707703,368.633759 
	C113.817398,368.981079 93.563225,368.981079 73.317841,368.981079 
	C73.317841,374.635040 73.317841,379.694489 73.317841,385.160187 
	C88.096809,385.160187 102.561218,385.160187 117.025635,385.160187 
	C111.468353,390.200623 105.911064,395.241089 99.714142,400.631287 
	C90.476471,400.981049 81.878441,400.981049 73.268372,400.981049 
	C73.268372,406.679474 73.268372,411.763367 73.268372,416.837891 
	C74.691986,416.961121 75.850761,417.061462 77.009544,417.161774 
	C68.264061,422.753052 59.518566,428.344360 50.421352,433.992432 
	C49.713387,430.926422 49.062023,427.804901 49.048542,424.680573 
	C48.957367,403.547272 48.882156,382.412537 49.030766,361.279877 
	C49.223888,333.817230 68.769073,310.239899 94.614876,305.995667 
	C123.100197,301.317993 148.481552,316.226135 158.000214,343.599823 
M98.500000,337.001678 
	C90.087288,337.001678 81.674576,337.001678 73.327042,337.001678 
	C73.327042,342.666931 73.327042,347.720459 73.327042,352.695282 
	C94.678001,352.695282 115.702271,352.695282 136.673431,352.695282 
	C136.673431,347.334015 136.673431,342.280487 136.673431,337.001678 
	C124.066635,337.001678 111.783318,337.001678 98.500000,337.001678 
z"/>
<path fill="#989898" opacity="1.000000" stroke="none" 
	d="
M464.866760,186.028549 
	C464.883209,208.020370 465.341125,230.023102 464.798645,252.001129 
	C464.188965,276.702393 445.203613,298.508606 420.916351,303.781525 
	C417.423737,304.539795 415.934906,303.741638 414.436981,300.110016 
	C408.802765,286.450409 402.536713,273.051300 396.495056,259.560089 
	C395.965851,258.378326 395.347168,257.236603 394.664703,255.864441 
	C397.093018,254.618057 399.365356,253.649780 401.434448,252.356308 
	C411.721252,245.925537 416.788879,236.530304 416.993378,224.455460 
	C417.041351,221.623734 417.038361,218.791168 417.491760,215.483673 
	C426.430908,210.021439 435.022217,205.172775 443.417603,200.005753 
	C450.682800,195.534302 457.725647,190.701569 464.866760,186.028549 
z"/>
<path fill="#F82714" opacity="1.000000" stroke="none" 
	d="
M315.000000,209.000290 
	C251.390488,209.000290 188.280975,209.000778 125.171471,208.997635 
	C123.506783,208.997559 121.808937,209.161697 120.183830,208.897263 
	C115.871727,208.195602 113.328461,205.610779 113.068550,201.189880 
	C112.824707,197.042145 115.951744,193.606125 120.288803,193.076050 
	C121.603119,192.915421 122.949593,193.002029 124.281334,193.001984 
	C202.044235,192.999466 279.807129,192.999710 357.570038,193.000107 
	C358.569122,193.000107 359.570526,192.962433 360.566895,193.015884 
	C365.639801,193.288055 368.991333,196.508438 368.959473,201.050034 
	C368.927643,205.585129 365.574158,208.888153 360.458771,208.955811 
	C350.802551,209.083557 341.143463,208.998001 331.485565,209.000076 
	C326.157043,209.001221 320.828522,209.000290 315.000000,209.000290 
z"/>
<path fill="#999999" opacity="1.000000" stroke="none" 
	d="
M377.144531,430.969635 
	C377.103912,415.313171 376.841339,399.653137 377.092285,384.001373 
	C377.296051,371.295197 388.098358,361.105713 400.771881,361.006500 
	C413.697998,360.905365 424.522980,371.098267 424.931519,384.050140 
	C425.162445,391.371490 424.944305,398.707031 424.521942,406.552917 
	C419.003143,410.977325 414.085144,415.177826 408.735840,418.728455 
	C399.143127,425.095642 388.907684,430.076141 377.144531,430.969635 
z"/>
<path fill="#CBCBCB" opacity="1.000000" stroke="none" 
	d="
M121.000046,273.002808 
	C118.210045,273.002808 115.902222,273.002808 113.164963,273.002808 
	C113.164963,278.301056 113.164963,283.370087 113.164963,288.715973 
	C107.675133,288.715973 102.615097,288.715973 97.114540,288.715973 
	C97.114540,283.660431 97.114540,278.589355 97.114540,273.267029 
	C91.624916,273.267029 86.565781,273.267029 81.068077,273.267029 
	C81.068077,278.400543 81.068077,283.475098 81.068077,288.583069 
	C80.212067,288.782196 79.759697,288.973053 79.304161,288.980927 
	C65.271645,289.224640 61.105602,282.395874 67.815033,269.882782 
	C72.167206,261.766052 79.137321,257.302185 88.341713,257.074402 
	C99.313591,256.802887 110.298744,256.887787 121.275261,257.034271 
	C132.519043,257.184265 141.601776,264.629425 144.289047,275.573212 
	C146.548218,284.773499 143.331924,288.992554 134.050797,289.002594 
	C132.570129,289.004181 131.089462,289.002808 128.997162,289.002808 
	C128.997162,286.215393 128.997162,283.619202 128.997162,281.023010 
	C128.997162,278.549591 128.997162,276.076172 128.997162,273.002808 
	C126.336884,273.002808 123.909546,273.002808 121.000046,273.002808 
z"/>
<path fill="#CBCBCB" opacity="1.000000" stroke="none" 
	d="
M422.064636,449.590576 
	C432.254852,452.266541 438.227966,458.563538 440.493347,468.335999 
	C442.451599,476.783356 438.988342,480.978577 430.249908,481.002197 
	C428.633057,481.006592 427.016235,481.002808 425.146545,481.002808 
	C425.146545,475.636169 425.146545,470.687134 425.146545,465.371033 
	C419.844391,465.371033 414.778320,465.371033 409.267731,465.371033 
	C409.267731,470.195068 409.267731,475.262512 409.267731,480.665771 
	C403.779419,480.665771 398.714966,480.665771 393.207489,480.665771 
	C393.207489,475.753204 393.207489,470.685547 393.207489,465.312286 
	C387.715424,465.312286 382.654327,465.312286 377.149139,465.312286 
	C377.149139,470.312042 377.149139,475.386566 377.149139,480.206055 
	C376.450073,480.621094 376.177979,480.925262 375.914948,480.917664 
	C371.068817,480.777496 365.414032,482.585144 362.341003,477.169403 
	C359.181824,471.601807 361.474701,466.080963 364.251678,461.098145 
	C368.136139,454.127960 374.351624,449.570831 382.264923,449.280762 
	C395.376434,448.800232 408.525696,449.349854 422.064636,449.590576 
z"/>
<path fill="#CBCBCB" opacity="1.000000" stroke="none" 
	d="
M447.751160,152.955566 
	C442.654968,152.994156 438.039001,152.994156 432.998169,152.994156 
	C432.998169,147.540115 432.998169,142.467056 432.998169,137.208832 
	C427.627380,137.208832 422.684235,137.208832 417.298462,137.208832 
	C417.298462,142.156021 417.298462,147.220718 417.298462,152.876907 
	C413.804413,152.876907 410.690186,153.196152 407.669434,152.800827 
	C403.323486,152.232040 400.881683,148.589447 401.030334,143.699203 
	C401.387054,131.962769 411.487396,121.495804 423.512390,121.117737 
	C435.144623,120.752037 446.804260,120.787186 458.439026,121.109627 
	C469.218140,121.408356 478.051880,129.369141 480.480835,140.208725 
	C482.389069,148.724487 479.039490,152.970169 470.384705,153.001968 
	C468.754852,153.007965 467.124939,153.002838 464.997192,153.002838 
	C464.997192,150.077118 464.997223,147.467422 464.997223,144.857727 
	C464.997223,142.399323 464.997192,139.940933 464.997192,137.245361 
	C459.579224,137.245361 454.520416,137.245361 449.421783,137.245361 
	C449.017700,142.565002 448.624542,147.740982 447.751160,152.955566 
z"/>
<path fill="#808080" opacity="1.000000" stroke="none" 
	d="
M464.930176,185.562347 
	C457.725647,190.701569 450.682800,195.534302 443.417603,200.005753 
	C435.022217,205.172775 426.430908,210.021439 417.568054,215.025421 
	C417.211487,199.939835 417.211487,184.837158 417.211487,169.368164 
	C432.962708,169.368164 448.646454,169.368164 464.993561,169.368164 
	C464.993561,174.591949 464.993561,179.844055 464.930176,185.562347 
z"/>
<path fill="#F42614" opacity="1.000000" stroke="none" 
	d="
M159.538193,34.220276 
	C167.611618,40.904694 175.374588,47.380093 182.777313,53.555008 
	C171.361145,60.069149 160.222778,66.424767 148.802750,72.941101 
	C149.210068,67.727760 149.605469,62.042274 150.111099,56.366611 
	C150.642899,50.397427 151.224152,44.431389 151.888565,38.475666 
	C152.449112,33.450832 154.295776,32.378296 159.538193,34.220276 
z"/>
<path fill="#F52614" opacity="1.000000" stroke="none" 
	d="
M319.625793,36.559475 
	C322.362213,35.349159 325.066803,33.303238 327.205353,33.782558 
	C328.649170,34.106171 329.918671,37.918056 330.191315,40.292980 
	C331.453583,51.288216 332.339844,62.326607 333.332672,73.046059 
	C321.893036,66.480186 310.757843,60.089062 299.297485,53.511295 
	C305.634857,48.230316 312.493896,42.514629 319.625793,36.559475 
z"/>
<path fill="#F7B22E" opacity="1.000000" stroke="none" 
	d="
M243.892685,241.010864 
	C240.115967,241.010864 236.823090,241.010864 233.196869,241.010864 
	C233.196869,245.442596 233.196869,249.541229 233.196869,253.746231 
	C227.848999,252.024170 224.626083,246.385086 225.030106,239.947433 
	C225.488037,232.650864 231.074173,226.455246 238.353424,225.170502 
	C245.462311,223.915833 252.939346,228.060165 255.757797,234.817307 
	C258.719910,241.918900 256.491699,249.167282 249.269318,254.422012 
	C249.269318,249.872986 249.269318,245.721008 249.269318,241.275284 
	C247.256424,241.166504 245.816467,241.088699 243.892685,241.010864 
z"/>
<path fill="#808080" opacity="1.000000" stroke="none" 
	d="
M377.082947,431.343872 
	C388.907684,430.076141 399.143127,425.095642 408.735840,418.728455 
	C414.085144,415.177826 419.003143,410.977325 424.444153,407.013123 
	C424.772797,415.700470 424.772797,424.444427 424.772797,433.545319 
	C409.279816,433.545319 393.962738,433.564117 378.646393,433.468292 
	C378.101105,433.464874 377.562866,432.327179 377.082947,431.343872 
z"/>
<path fill="#C7C7C7" opacity="1.000000" stroke="none" 
	d="
M50.740089,472.232117 
	C53.496407,475.119537 56.016327,477.739899 58.976292,480.817841 
	C52.201580,480.817841 45.673569,481.262634 39.245365,480.653748 
	C35.284977,480.278595 33.038292,477.002441 33.031307,472.824890 
	C33.020920,466.611206 35.282017,461.275146 39.577854,456.565155 
	C43.320419,461.840271 46.912056,466.902649 50.740089,472.232117 
z"/>
<path fill="#040404" opacity="1.000000" stroke="none" 
	d="
M260.995361,144.966141 
	C269.956879,143.427002 272.515350,140.070572 273.217987,129.239502 
	C278.287109,129.239502 283.375427,129.239502 288.461945,129.239502 
	C290.239197,140.083298 285.198059,150.961044 275.704132,156.813675 
	C264.884399,163.483612 253.408356,162.249619 240.944580,152.964203 
	C230.401871,161.781509 218.776291,164.126328 206.550583,156.852371 
	C196.340866,150.777893 192.289459,141.203964 193.113129,129.214539 
	C198.429367,129.214539 203.511429,129.214539 209.047119,129.214539 
	C209.047119,130.782196 208.944489,132.234283 209.064804,133.667648 
	C209.602188,140.069916 214.658371,144.886581 220.847122,144.965912 
	C227.239761,145.047867 232.457947,140.112030 232.945526,133.466751 
	C233.054932,131.975647 232.918579,130.466629 233.026016,128.975266 
	C233.366486,124.249283 236.602570,121.040878 240.967773,121.023605 
	C245.332031,121.006348 248.527817,124.212357 249.004837,128.917557 
	C249.319946,132.025726 249.237732,135.349182 250.369537,138.158875 
	C252.103531,142.463486 255.877594,144.649033 260.995361,144.966141 
z"/>
<path fill="#060606" opacity="1.000000" stroke="none" 
	d="
M270.251465,102.015640 
	C266.533295,98.437759 263.141724,95.032829 259.765869,91.643677 
	C269.906433,77.542976 291.304871,77.459488 302.238586,91.455353 
	C298.650085,95.050308 295.052917,98.653984 291.467407,102.245995 
	C282.116669,95.085114 280.102814,95.086891 270.251465,102.015640 
z"/>
<path fill="#060606" opacity="1.000000" stroke="none" 
	d="
M182.317184,88.401283 
	C196.059113,77.542076 212.429016,78.878593 222.241196,91.461372 
	C218.564590,94.968323 214.878922,98.483902 211.170746,102.020950 
	C202.150894,95.097336 200.113556,95.099525 190.392807,102.321632 
	C186.971786,98.769272 183.527863,95.193130 179.800934,91.323128 
	C180.456741,90.547218 181.256012,89.601547 182.317184,88.401283 
z"/>
<path fill="#050505" opacity="1.000000" stroke="none" 
	d="
M322.839233,167.129181 
	C315.400116,165.172791 308.367096,163.297379 300.878479,161.300507 
	C302.228699,156.169113 303.519501,151.263382 304.956726,145.801315 
	C315.309937,148.591965 325.460541,151.328003 335.872528,154.134476 
	C334.431152,159.427582 333.099670,164.317184 331.690674,169.491318 
	C328.640533,168.667450 325.942932,167.938828 322.839233,167.129181 
z"/>
<path fill="#050505" opacity="1.000000" stroke="none" 
	d="
M180.175842,125.286362 
	C179.141617,129.177505 178.202377,132.668961 177.122223,136.684219 
	C166.804581,133.929550 156.814072,131.262238 146.325302,128.461884 
	C147.666382,123.297874 148.939529,118.395470 150.348083,112.971664 
	C160.688080,115.737488 170.813416,118.445885 181.160492,121.213600 
	C180.800415,122.700226 180.535629,123.793442 180.175842,125.286362 
z"/>
<path fill="#050505" opacity="1.000000" stroke="none" 
	d="
M149.107422,164.954163 
	C148.161819,161.214218 147.295624,157.886322 146.326981,154.164886 
	C156.547318,151.390381 166.554871,148.673645 177.070816,145.818909 
	C178.470001,150.892181 179.809494,155.748962 181.326508,161.249466 
	C171.089142,164.007675 161.119812,166.693680 150.742554,169.489578 
	C150.170822,167.974258 149.678818,166.670242 149.107422,164.954163 
z"/>
<path fill="#050505" opacity="1.000000" stroke="none" 
	d="
M320.044678,116.062897 
	C324.093079,115.007019 327.740997,114.033211 331.690521,112.978882 
	C333.065399,118.133224 334.372742,123.034485 335.808899,128.418686 
	C325.469574,131.185654 315.478088,133.859543 305.011169,136.660645 
	C303.565063,131.403519 302.223328,126.525887 300.792145,121.323105 
	C307.255005,119.547928 313.449585,117.846443 320.044678,116.062897 
z"/>
<path fill="#000000" opacity="1.000000" stroke="none" 
	d="
M117.486343,385.088379 
	C102.561218,385.160187 88.096809,385.160187 73.317841,385.160187 
	C73.317841,379.694489 73.317841,374.635040 73.317841,368.981079 
	C93.563225,368.981079 113.817398,368.981079 134.535599,368.908813 
	C135.664948,369.721283 136.861603,370.580719 136.905014,371.494965 
	C137.108810,375.787262 136.995621,380.094574 136.995621,385.016571 
	C130.465027,385.016571 124.206039,385.016571 117.486343,385.088379 
z"/>
<path fill="#000000" opacity="1.000000" stroke="none" 
	d="
M77.472046,417.089630 
	C75.850761,417.061462 74.691986,416.961121 73.268372,416.837891 
	C73.268372,411.763367 73.268372,406.679474 73.268372,400.981049 
	C81.878441,400.981049 90.476471,400.981049 99.539040,400.909058 
	C112.127449,400.837097 124.251320,400.837097 136.685623,400.837097 
	C136.685623,406.321564 136.685623,411.377350 136.685623,417.017487 
	C117.091576,417.017487 97.513062,417.017487 77.472046,417.089630 
z"/>
<path fill="#000000" opacity="1.000000" stroke="none" 
	d="
M119.998367,433.001892 
	C125.792900,433.001892 131.087738,433.001892 136.689102,433.001892 
	C136.689102,438.323090 136.689102,443.373535 136.689102,448.713318 
	C115.658722,448.713318 94.640343,448.713318 73.311310,448.713318 
	C73.311310,443.677704 73.311310,438.627258 73.311310,433.001892 
	C88.711372,433.001892 104.105034,433.001892 119.998367,433.001892 
z"/>
<path fill="#000000" opacity="1.000000" stroke="none" 
	d="
M99.000000,337.001678 
	C111.783318,337.001678 124.066635,337.001678 136.673431,337.001678 
	C136.673431,342.280487 136.673431,347.334015 136.673431,352.695282 
	C115.702271,352.695282 94.678001,352.695282 73.327042,352.695282 
	C73.327042,347.720459 73.327042,342.666931 73.327042,337.001678 
	C81.674576,337.001678 90.087288,337.001678 99.000000,337.001678 
z"/>
</svg>